<?xml version="1.0" encoding="UTF-8"?>
<svg xmlns="http://www.w3.org/2000/svg" xmlns:xlink="http://www.w3.org/1999/xlink" viewBox="0 0 250 250" width="250px" height="250px">
<g id="surface4072447">
<path style=" stroke:none;fill-rule:nonzero;fill:rgb(60.784316%,34.901962%,71.372551%);fill-opacity:1;" d="M 125 10 C 61.585938 10 10 61.585938 10 125 C 10 188.414062 61.585938 240 125 240 C 188.414062 240 240 188.414062 240 125 C 240 61.585938 188.414062 10 125 10 Z M 125 140 C 122.691406 140 120.523438 139.433594 118.570312 138.5 L 88.535156 168.535156 C 87.558594 169.511719 86.28125 170 85 170 C 83.71875 170 82.441406 169.511719 81.464844 168.535156 C 79.511719 166.578125 79.511719 163.421875 81.464844 161.464844 L 111.5 131.429688 C 110.566406 129.476562 110 127.308594 110 125 C 110 118.480469 114.183594 112.984375 120 110.921875 L 120 40 C 120 37.234375 122.234375 35 125 35 C 127.765625 35 130 37.234375 130 40 L 130 110.921875 C 135.816406 112.984375 140 118.480469 140 125 C 140 133.285156 133.285156 140 125 140 Z M 125 140 "/>
</g>
</svg>
